# xmcd CD database file
#
# Track frame offsets:
#	150
#	13293
#	26069
#	39278
#	54220
#	66079
#	79813
#	91548
#	105288
#	120411
#	131386
#	144570
#	159317
#	171286
#
# Disc length: 2526 seconds
#
# Revision: 0
# Processed by: cddbd v1.4PL0 Copyright (c) Steve Scherf et al.
# Submitted via: CDex 1.50Beta7
#
DISCID=a209dc0e
DTITLE=Ella Fitzgerald - Ella Fitzgerald - Disc 1
DYEAR=2000
DGENRE=Jazz
TTITLE0=Mr. Paganini ( You'll Have To Swing It)
TTITLE1=Organ Grinder's Swing
TTITLE2=It's Wonderful
TTITLE3=You Showed Me The Way
TTITLE4=Cryin' Mood
TTITLE5=Bei Mir Bist Du Schon
TTITLE6=I Found My Yellow Basket
TTITLE7=Wacky Dust
TTITLE8=I Got A Guy
TTITLE9=When I Get Low I Get High
TTITLE10=It's My Turn Now
TTITLE11=I'm Just A Jitterbug
TTITLE12=A-Tisket, A-Tasket
TTITLE13=Hallelujah
EXTD=YEAR: 2000
EXTT0=
EXTT1=
EXTT2=
EXTT3=
EXTT4=
EXTT5=
EXTT6=
EXTT7=
EXTT8=
EXTT9=
EXTT10=
EXTT11=
EXTT12=
EXTT13=
PLAYORDER=
